# Blender 4.2.1 LTS
# www.blender.org
o collision.001
v -0.851765 0.000000 1.228807
v 1.228807 0.000000 1.228807
v -0.851765 0.000000 -0.851765
v 1.228807 0.000000 -0.851765
v -3.639290 5.384724 -3.639290
v -3.639290 5.384724 4.016332
v 4.016332 5.384724 4.016332
v 4.016332 5.384724 -3.639290
v -0.847971 0.000000 -6.481393
v -3.639290 0.000000 4.016332
v 4.016332 0.000000 4.016332
v 1.228756 0.000000 -6.481393
v -0.851765 1.225634 -0.851765
v -0.851765 1.225634 1.228807
v 1.228807 1.225634 1.228807
v 1.228807 1.225634 -0.851765
v 1.228756 0.000000 -8.558120
v -0.847971 0.000000 -8.558120
v 4.016332 5.384724 -11.960466
v -3.639290 5.384724 -11.960466
v 4.016332 0.000000 -3.639290
v -3.639290 0.000000 -3.639290
v 4.016332 0.000000 -11.960466
v -3.639290 0.000000 -11.960466
v 1.228756 1.211764 -6.481393
v -0.847971 1.211764 -6.481393
v 1.228756 1.211764 -8.558120
v -0.847971 1.211764 -8.558120
vn 1.0000 -0.0000 -0.0000
vn -0.0000 -1.0000 -0.0000
vn -0.0000 1.0000 -0.0000
vn -1.0000 -0.0000 -0.0000
vn -0.0000 -0.0000 -1.0000
vn -0.0000 -0.0000 1.0000
vt 0.635885 0.364115
vt 0.635885 0.635885
vt 0.000000 0.000000
vt 0.000000 1.000000
vt 1.000000 1.000000
vt 1.000000 0.000000
vt 0.364115 0.364115
vt 0.364115 0.635885
vt 0.296907 1.000000
vt 0.703093 1.000000
vt 0.703093 1.000000
s 0
f 2/1/1 4/2/1 16/2/1 15/1/1
f 6/3/2 5/4/2 8/5/2 7/6/2
f 22/4/1 5/4/1 6/3/1 10/3/1
f 8/5/2 5/4/2 20/4/2 19/5/2
f 1/7/3 3/8/3 22/4/3 10/3/3
f 2/1/3 1/7/3 10/3/3 11/6/3
f 4/2/3 2/1/3 11/6/3 21/5/3
f 3/8/3 4/2/3 21/5/3 22/4/3
f 14/7/3 15/1/3 16/2/3 13/8/3
f 3/8/4 1/7/4 14/7/4 13/8/4
f 4/2/5 3/8/5 13/8/5 16/2/5
f 1/7/6 2/1/6 15/1/6 14/7/6
f 11/6/5 10/3/5 6/3/5 7/6/5
f 21/5/4 11/6/4 7/6/4 8/5/4
f 23/5/6 19/5/6 20/4/6 24/4/6
f 18/9/4 9/9/4 26/9/4 28/9/4
f 5/4/1 22/4/1 24/4/1 20/4/1
f 21/5/4 8/5/4 19/5/4 23/5/4
f 12/10/3 9/9/3 22/4/3 21/5/3
f 18/9/3 17/11/3 23/5/3 24/4/3
f 17/11/3 12/10/3 21/5/3 23/5/3
f 9/9/3 18/9/3 24/4/3 22/4/3
f 26/9/3 25/10/3 27/11/3 28/9/3
f 17/11/5 18/9/5 28/9/5 27/11/5
f 12/10/1 17/11/1 27/11/1 25/10/1
f 9/9/6 12/10/6 25/10/6 26/9/6
