# Blender 4.2.1 LTS
# www.blender.org
o collision
v -0.851765 0.000000 1.228807
v 1.228807 0.000000 1.228807
v -0.851765 0.000000 -0.851765
v 1.228807 0.000000 -0.851765
v -3.639290 5.384724 -3.639290
v -3.639290 5.384724 4.016332
v 4.016332 5.384724 4.016332
v 4.016332 5.384724 -3.639290
v -3.639290 0.000000 -3.639290
v -3.639290 0.000000 4.016332
v 4.016332 0.000000 4.016332
v 4.016332 0.000000 -3.639290
v -0.851765 1.225634 -0.851765
v -0.851765 1.225634 1.228807
v 1.228807 1.225634 1.228807
v 1.228807 1.225634 -0.851765
v 9.042782 2.616402 8.913568
v 9.042782 2.825358 8.913568
v 9.042782 2.616402 8.704612
v 9.042782 2.825358 8.704612
v 9.251738 2.616402 8.913568
v 9.251738 2.825358 8.913568
v 9.251738 2.616402 8.704612
v 9.251738 2.825358 8.704612
vn 1.0000 -0.0000 -0.0000
vn -0.0000 -1.0000 -0.0000
vn -1.0000 -0.0000 -0.0000
vn -0.0000 -0.0000 1.0000
vn -0.0000 -0.0000 -1.0000
vn -0.0000 1.0000 -0.0000
vt 0.635885 0.364115
vt 0.635885 0.635885
vt 0.000000 0.000000
vt 0.000000 1.000000
vt 1.000000 1.000000
vt 1.000000 0.000000
vt 0.364115 0.364115
vt 0.364115 0.635885
vt 0.375000 0.000000
vt 0.625000 0.000000
vt 0.625000 0.250000
vt 0.375000 0.250000
vt 0.625000 0.500000
vt 0.375000 0.500000
vt 0.625000 0.750000
vt 0.375000 0.750000
vt 0.625000 1.000000
vt 0.375000 1.000000
vt 0.125000 0.500000
vt 0.125000 0.750000
vt 0.875000 0.500000
vt 0.875000 0.750000
s 0
f 2/1/1 4/2/1 16/2/1 15/1/1
f 6/3/2 5/4/2 8/5/2 7/6/2
f 11/6/3 7/6/3 8/5/3 12/5/3
f 9/4/1 5/4/1 6/3/1 10/3/1
f 12/5/4 8/5/4 5/4/4 9/4/4
f 10/3/5 6/3/5 7/6/5 11/6/5
f 1/7/6 3/8/6 9/4/6 10/3/6
f 2/1/6 1/7/6 10/3/6 11/6/6
f 4/2/6 2/1/6 11/6/6 12/5/6
f 3/8/6 4/2/6 12/5/6 9/4/6
f 14/7/6 15/1/6 16/2/6 13/8/6
f 3/8/3 1/7/3 14/7/3 13/8/3
f 4/2/5 3/8/5 13/8/5 16/2/5
f 1/7/4 2/1/4 15/1/4 14/7/4
f 17/9/3 18/10/3 20/11/3 19/12/3
f 19/12/5 20/11/5 24/13/5 23/14/5
f 23/14/1 24/13/1 22/15/1 21/16/1
f 21/16/4 22/15/4 18/17/4 17/18/4
f 19/19/2 23/14/2 21/16/2 17/20/2
f 24/13/6 20/21/6 18/22/6 22/15/6
