# Blender 4.2.2 LTS
# www.blender.org
o Plane.006
v -10.000000 0.000000 10.000000
v 10.000000 0.000000 10.000000
v -10.000000 0.000000 -10.000000
v 10.000000 0.000000 -10.000000
v -9.039287 5.069321 -10.000000
v -10.000000 6.030034 10.000000
v 10.000000 6.030034 10.000000
v 9.039287 5.069321 -10.000000
v -1.522931 -0.271561 1.522931
v 1.522931 -0.271561 1.522931
v -1.522931 -0.271561 -1.522931
v 1.522931 -0.271561 -1.522931
v -1.522931 1.324214 -1.522931
v -1.522931 1.324214 1.522931
v 1.522931 1.324214 1.522931
v 1.522931 1.324214 -1.522931
v -2.765238 -0.271561 6.956929
v -1.575862 -0.271561 6.956929
v -2.765238 -0.271561 3.911067
v -1.575862 -0.271561 3.911067
v -2.765238 1.324214 3.911067
v -2.765238 1.324214 6.956929
v -1.575862 1.324214 6.956929
v -1.575862 1.324214 3.911067
v 7.487055 -0.585681 6.835584
v 7.487055 -0.585681 5.646208
v -3.276468 -0.585681 6.835584
v -3.276468 -0.585681 5.646208
v -3.276468 1.259323 6.835584
v 7.487055 1.259323 6.835584
v 7.487055 1.259323 5.646208
v -3.276468 1.259323 5.646208
v -5.088451 -0.570332 0.567499
v -4.247436 -0.570332 -0.273517
v -7.242202 -0.570332 -1.586251
v -6.401185 -0.570332 -2.427266
v -7.242202 2.044312 -1.586251
v -5.088451 2.044312 0.567499
v -4.247436 2.044312 -0.273517
v -6.401185 2.044312 -2.427266
v 6.607602 -0.969238 6.864595
v 6.607602 -0.969238 0.763113
v 3.561739 -0.969238 6.864598
v 3.561739 -0.969238 0.763113
v 3.561739 1.712051 6.864598
v 6.607602 1.712051 6.864595
v 6.607602 1.712051 0.763113
v 3.561739 1.712051 0.763113
v -10.000000 0.000000 -5.000000
v -10.000000 0.000000 0.000000
v -10.000000 0.000000 5.000000
v 10.000000 0.000000 5.000000
v 10.000000 0.000000 0.000000
v 10.000000 0.000000 -5.000000
v -10.000000 6.030034 -5.000000
v -10.000000 6.030034 0.000000
v -10.000000 6.030034 5.000000
v 10.000000 6.030034 5.000000
v 10.000000 6.030034 0.000000
v 10.000000 6.030034 -5.000000
v -6.000000 0.000000 10.000000
v -2.000000 0.000000 10.000000
v 2.000000 0.000000 10.000000
v 6.000000 0.000000 10.000000
v 6.000000 0.000000 -10.000000
v 2.000000 0.000000 -10.000000
v -2.000000 0.000000 -10.000000
v -6.000000 0.000000 -10.000000
v -6.000000 6.030034 10.000000
v -2.000000 6.030034 10.000000
v 2.000000 6.030034 10.000000
v 6.000000 6.030034 10.000000
v 6.000000 5.069320 -10.000000
v 2.000000 5.069320 -10.000000
v -2.000000 5.069320 -10.000000
v -6.000000 5.069320 -10.000000
v -6.000000 6.030034 5.000000
v -2.000000 6.030034 5.000000
v 2.000000 6.030034 5.000000
v 6.000000 6.030034 5.000000
v -6.000000 6.030034 0.000000
v -2.000000 6.030034 0.000000
v 2.000000 6.030034 0.000000
v 6.000000 6.030034 0.000000
v -6.000000 6.030034 -5.000000
v -2.000000 6.030034 -5.000000
v 2.000000 6.030034 -5.000000
v 6.000000 6.030034 -5.000000
v 6.000000 0.000000 5.000000
v 2.000000 0.000000 5.000000
v -2.000000 0.000000 5.000000
v -6.000000 0.000000 5.000000
v 6.000000 0.000000 0.000000
v 2.000000 0.000000 0.000000
v -2.000000 0.000000 0.000000
v -6.000000 0.000000 0.000000
v 6.000000 0.000000 -5.000000
v 2.000000 0.000000 -5.000000
v -2.000000 0.000000 -5.000000
v -6.000000 0.000000 -5.000000
v -9.039287 3.975730 -10.000000
v 9.039287 3.975730 -10.000000
v 10.000000 3.015017 10.000000
v -10.000000 3.015017 10.000000
v -10.000000 3.015017 -5.000000
v -10.000000 3.015017 0.000000
v -10.000000 3.015017 5.000000
v 10.000000 3.015017 5.000000
v 10.000000 3.015017 0.000000
v 10.000000 3.015017 -5.000000
v -6.000000 3.015017 10.000000
v -2.000000 3.015017 10.000000
v 2.000000 3.015017 10.000000
v 6.000000 3.015017 10.000000
v 6.000000 3.975730 -10.000000
v 2.000000 3.975730 -10.000000
v -2.000000 3.975730 -10.000000
v -6.000000 3.975730 -10.000000
v -6.000000 6.030034 -10.000000
v -10.000000 6.030034 -10.000000
v -10.000000 3.015017 -10.000000
v 10.000000 6.030034 -10.000000
v 6.000000 6.030034 -10.000000
v 2.000000 6.030034 -10.000000
v -2.000000 6.030034 -10.000000
v 10.000000 3.015017 -10.000000
v -2.000000 3.015017 -10.000000
v -6.000000 3.015017 -10.000000
v 2.000000 3.015017 -10.000000
v 6.000000 3.015017 -10.000000
v 6.000000 6.864213 -13.392296
v 6.000000 5.770623 -13.392296
v 2.000000 6.864213 -13.392296
v 2.000000 5.770623 -13.392296
v -2.000000 6.864213 -13.392296
v -2.000000 5.770623 -13.392296
v -6.000000 6.864213 -13.392296
v -6.000000 5.770623 -13.392296
v -9.039287 6.864213 -13.392296
v -9.039287 5.770623 -13.392296
v 9.039287 6.864213 -13.392296
v 9.039287 5.770623 -13.392296
v -10.000000 4.522525 -10.000000
v 10.000000 4.522525 10.000000
v 10.000000 4.522525 -10.000000
v -10.000000 4.522525 10.000000
v -10.000000 4.522525 -5.000000
v -10.000000 4.522525 0.000000
v -10.000000 4.522525 5.000000
v 10.000000 4.522525 5.000000
v 10.000000 4.522525 0.000000
v 10.000000 4.522525 -5.000000
v -6.000000 4.522525 10.000000
v -2.000000 4.522525 10.000000
v 2.000000 4.522525 10.000000
v 6.000000 4.522525 10.000000
v -9.039287 4.522525 -10.000000
v 9.039287 4.522525 -10.000000
v 6.000000 6.317418 -13.392296
v 2.000000 6.317418 -13.392296
v -2.000000 6.317418 -13.392296
v -6.000000 6.317418 -13.392296
v -9.039287 6.317418 -13.392296
v 9.039287 6.317418 -13.392296
v 10.000000 1.507508 -10.000000
v -10.000000 1.507508 10.000000
v -10.000000 1.507508 -5.000000
v -10.000000 1.507508 0.000000
v -10.000000 1.507508 5.000000
v 10.000000 1.507508 5.000000
v 10.000000 1.507508 0.000000
v 10.000000 1.507508 -5.000000
v -6.000000 1.507508 10.000000
v -2.000000 1.507508 10.000000
v 2.000000 1.507508 10.000000
v 6.000000 1.507508 10.000000
v 6.000000 1.507508 -10.000000
v 2.000000 1.507508 -10.000000
v -2.000000 1.507508 -10.000000
v -6.000000 1.507508 -10.000000
v -10.000000 1.507508 -10.000000
v 10.000000 1.507508 10.000000
v -10.000000 0.000000 7.500000
v -10.000000 6.030034 7.500000
v 10.000000 0.000000 7.500000
v 10.000000 6.030034 7.500000
v -6.000000 0.000000 7.500000
v -2.000000 0.000000 7.500000
v 2.000000 0.000000 7.500000
v 6.000000 0.000000 7.500000
v -6.000000 6.030034 7.500000
v -2.000000 6.030034 7.500000
v 2.000000 6.030034 7.500000
v 6.000000 6.030034 7.500000
v 10.000000 3.015017 7.500000
v -10.000000 3.015017 7.500000
v 10.000000 4.522525 7.500000
v -10.258637 2.211379 7.500000
v -10.258637 1.507508 6.796129
v 10.000000 1.507508 7.500000
v -10.000000 0.000000 2.500000
v 10.000000 0.000000 2.500000
v -10.000000 6.030034 2.500000
v 10.000000 6.030034 2.500000
v -6.000000 0.000000 2.500000
v -2.000000 0.000000 2.500000
v 2.000000 0.000000 2.500000
v 6.000000 0.000000 2.500000
v -6.000000 6.030034 2.500000
v -2.000000 6.030034 2.500000
v 2.000000 6.030034 2.500000
v 6.000000 6.030034 2.500000
v 10.000000 3.015017 2.500000
v -10.000000 3.015017 2.500000
v 10.000000 4.522525 2.500000
v -10.258637 0.803638 7.500000
v -10.258637 1.507508 8.203871
v 10.000000 1.507508 2.500000
v -10.000000 0.000000 -2.500000
v 10.000000 0.000000 -2.500000
v -10.000000 6.030034 -2.500000
v 10.000000 6.030034 -2.500000
v -6.000000 0.000000 -2.500000
v -2.000000 0.000000 -2.500000
v 2.000000 0.000000 -2.500000
v 6.000000 0.000000 -2.500000
v -6.000000 6.030034 -2.500000
v -2.000000 6.030034 -2.500000
v 2.000000 6.030034 -2.500000
v 6.000000 6.030034 -2.500000
v 10.000000 3.015017 -2.500000
v -10.000000 3.015017 -2.500000
v 10.000000 4.522525 -2.500000
v -10.258637 5.226396 7.500000
v -10.258637 4.522525 6.796129
v 10.000000 1.507508 -2.500000
v 10.000000 0.000000 -7.500000
v 10.000000 6.030034 -7.500000
v -10.000000 0.000000 -7.500000
v -10.000000 6.030034 -7.500000
v -6.000000 6.030034 -7.500000
v -2.000000 6.030034 -7.500000
v 2.000000 6.030034 -7.500000
v 6.000000 6.030034 -7.500000
v -6.000000 0.000000 -7.500000
v -2.000000 0.000000 -7.500000
v 2.000000 0.000000 -7.500000
v 6.000000 0.000000 -7.500000
v -10.000000 3.015017 -7.500000
v 10.000000 3.015017 -7.500000
v -10.258637 3.818655 7.500000
v 10.000000 4.522525 -7.500000
v 10.000000 1.507508 -7.500000
v -10.258637 4.522525 8.203871
v -10.000000 4.522525 8.203871
v -10.000000 3.818655 7.500000
v -10.000000 4.522525 6.796129
v -10.000000 5.226396 7.500000
v -10.000000 1.507508 8.203871
v -10.000000 0.803638 7.500000
v -10.000000 1.507508 6.796129
v -10.000000 2.211379 7.500000
v -10.000000 4.522525 3.203871
v -10.000000 3.818655 2.500000
v -10.000000 4.522525 1.796129
v -10.000000 5.226396 2.500000
v -10.000000 1.507508 3.203871
v -10.000000 0.803638 2.500000
v -10.000000 1.507508 1.796129
v -10.000000 2.211379 2.500000
v -10.000000 4.522525 -1.796129
v -10.000000 3.818655 -2.500000
v -10.000000 4.522525 -3.203871
v -10.000000 5.226396 -2.500000
v -10.000000 1.507508 -1.796129
v -10.000000 0.803638 -2.500000
v -10.000000 1.507508 -3.203871
v -10.000000 2.211379 -2.500000
v -10.000000 4.522525 -6.796129
v -10.000000 3.818655 -7.500000
v -10.000000 4.522525 -8.203871
v -10.000000 5.226396 -7.500000
v -10.000000 1.507508 -6.796129
v -10.000000 0.803638 -7.500000
v -10.000000 1.507508 -8.203871
v -10.000000 2.211379 -7.500000
v -10.258637 4.522525 3.203871
v -10.258637 3.818655 2.500000
v -10.258637 4.522525 1.796129
v -10.258637 5.226396 2.500000
v -10.258637 1.507508 3.203871
v -10.258637 0.803638 2.500000
v -10.258637 1.507508 1.796129
v -10.258637 2.211379 2.500000
v -10.258637 4.522525 -1.796129
v -10.258637 3.818655 -2.500000
v -10.258637 4.522525 -3.203871
v -10.258637 5.226396 -2.500000
v -10.258637 1.507508 -1.796129
v -10.258637 0.803638 -2.500000
v -10.258637 1.507508 -3.203871
v -10.258637 2.211379 -2.500000
v -10.258637 4.522525 -6.796129
v -10.258637 3.818655 -7.500000
v -10.258637 4.522525 -8.203871
v -10.258637 5.226396 -7.500000
v -10.258637 1.507508 -6.796129
v -10.258637 0.803638 -7.500000
v -10.258637 1.507508 -8.203871
v -10.258637 2.211379 -7.500000
vn -0.0000 1.0000 -0.0000
vn -0.0000 -1.0000 -0.0000
vn -0.0000 0.8839 0.4677
vn -0.0000 -0.0000 -1.0000
vn -1.0000 -0.0000 -0.0000
vn 1.0000 -0.0000 -0.0000
vn -0.0000 -0.0000 1.0000
vn -0.7071 -0.0000 -0.7071
vn 0.7071 -0.0000 0.7071
vn 0.7071 -0.0000 -0.7071
vn -0.7071 -0.0000 0.7071
vn -0.0000 -0.8839 -0.4677
vn -0.0000 0.7071 0.7071
vn -0.0000 -0.7071 0.7071
vn -0.0000 -0.7071 -0.7071
vn -0.0000 0.7071 -0.7071
vt 0.800000 0.875000
vt 1.000000 0.875000
vt 1.000000 1.000000
vt 0.800000 1.000000
vt 0.048036 1.000000
vt 0.200000 1.000000
vt 0.800000 0.000000
vt 1.000000 0.000000
vt 0.000000 0.125000
vt 0.000000 0.125000
vt 0.000000 0.089806
vt 0.000000 0.000000
vt 0.000000 1.000000
vt 0.000000 0.875000
vt 0.000000 0.839806
vt 0.000000 0.750000
vt 0.000000 0.625000
vt 0.000000 0.589806
vt 0.000000 0.500000
vt 0.000000 0.375000
vt 0.000000 0.339806
vt 0.000000 0.250000
vt 1.000000 0.125000
vt 1.000000 0.250000
vt 1.000000 0.375000
vt 1.000000 0.500000
vt 1.000000 0.625000
vt 1.000000 0.750000
vt 0.800000 0.125000
vt 0.800000 0.250000
vt 0.800000 0.375000
vt 0.800000 0.500000
vt 0.800000 0.625000
vt 0.800000 0.750000
vt 0.800000 0.125000
vt 0.800000 0.250000
vt 0.800000 0.375000
vt 0.800000 0.500000
vt 0.200000 0.625000
vt 0.200000 0.750000
vt 0.400000 0.625000
vt 0.400000 0.750000
vt 0.600000 0.625000
vt 0.600000 0.750000
vt 0.200000 0.375000
vt 0.200000 0.500000
vt 0.400000 0.375000
vt 0.400000 0.500000
vt 0.600000 0.375000
vt 0.600000 0.500000
vt 0.200000 0.125000
vt 0.200000 0.250000
vt 0.400000 0.125000
vt 0.400000 0.250000
vt 0.600000 0.125000
vt 0.600000 0.250000
vt 0.600000 0.500000
vt 0.600000 0.375000
vt 0.600000 0.250000
vt 0.600000 0.125000
vt 0.200000 0.000000
vt 0.400000 0.000000
vt 0.600000 0.000000
vt 0.600000 1.000000
vt 0.400000 1.000000
vt 0.048036 1.000000
vt 0.800000 1.000000
vt 0.951964 1.000000
vt 0.200000 1.000000
vt 0.200000 0.875000
vt 0.400000 1.000000
vt 0.400000 0.875000
vt 0.600000 0.875000
vt 0.000000 0.160194
vt 0.951964 1.000000
vt 0.951964 1.000000
vt 0.000000 0.410194
vt 0.000000 0.660194
vt 0.000000 0.910194
vt 0.000000 0.375000
vt 0.000000 0.660194
s 0
f 248/1/1 237/2/1 4/3/1 65/4/1
f 244/1/2 123/4/2 122/3/2 238/2/2
f 101/5/3 118/6/3 138/6/3 140/5/3
f 156/7/4 72/7/4 7/8/4 144/8/4
f 252/2/5 238/2/5 122/3/5 145/3/5
f 183/9/6 260/10/6 259/11/6 166/12/6 1/12/6
f 9/12/2 11/13/2 12/3/2 10/8/2
f 14/12/1 15/8/1 16/3/1 13/13/1
f 12/3/4 11/13/4 13/13/4 16/3/4
f 9/12/7 10/8/7 15/8/7 14/12/7
f 10/8/6 12/3/6 16/3/6 15/8/6
f 11/13/5 9/12/5 14/12/5 13/13/5
f 17/12/2 19/13/2 20/3/2 18/8/2
f 22/12/1 23/8/1 24/3/1 21/13/1
f 20/3/4 19/13/4 21/13/4 24/3/4
f 17/12/7 18/8/7 23/8/7 22/12/7
f 18/8/6 20/3/6 24/3/6 23/8/6
f 19/13/5 17/12/5 22/12/5 21/13/5
f 25/12/2 27/13/2 28/3/2 26/8/2
f 30/12/1 31/8/1 32/3/1 29/13/1
f 28/3/5 27/13/5 29/13/5 32/3/5
f 25/12/6 26/8/6 31/8/6 30/12/6
f 26/8/4 28/3/4 32/3/4 31/8/4
f 27/13/7 25/12/7 30/12/7 29/13/7
f 33/12/2 35/13/2 36/3/2 34/8/2
f 38/12/1 39/8/1 40/3/1 37/13/1
f 36/3/8 35/13/8 37/13/8 40/3/8
f 33/12/9 34/8/9 39/8/9 38/12/9
f 34/8/10 36/3/10 40/3/10 39/8/10
f 35/13/11 33/12/11 38/12/11 37/13/11
f 41/12/2 43/13/2 44/3/2 42/8/2
f 46/12/1 47/8/1 48/3/1 45/13/1
f 44/3/5 43/13/5 45/13/5 48/3/5
f 41/12/6 42/8/6 47/8/6 46/12/6
f 42/8/4 44/3/4 48/3/4 47/8/4
f 43/13/7 41/12/7 46/12/7 45/13/7
f 239/14/6 284/14/6 283/15/6 167/16/6 49/16/6
f 219/17/6 276/17/6 275/18/6 168/19/6 50/19/6
f 201/20/6 268/20/6 267/21/6 169/22/6 51/22/6
f 197/23/5 186/23/5 58/24/5 150/24/5
f 215/25/5 204/25/5 59/26/5 151/26/5
f 233/27/5 222/27/5 60/28/5 152/28/5
f 194/29/2 80/30/2 58/24/2 186/23/2
f 212/31/2 84/32/2 59/26/2 204/25/2
f 230/33/2 88/34/2 60/28/2 222/27/2
f 190/35/1 185/23/1 52/24/1 89/36/1
f 208/37/1 202/25/1 53/26/1 93/38/1
f 226/33/1 220/27/1 54/28/1 97/34/1
f 219/17/1 223/39/1 100/40/1 49/16/1
f 223/39/1 224/41/1 99/42/1 100/40/1
f 224/41/1 225/43/1 98/44/1 99/42/1
f 225/43/1 226/33/1 97/34/1 98/44/1
f 201/20/1 205/45/1 96/46/1 50/19/1
f 205/45/1 206/47/1 95/48/1 96/46/1
f 206/47/1 207/49/1 94/50/1 95/48/1
f 207/49/1 208/37/1 93/38/1 94/50/1
f 183/9/1 187/51/1 92/52/1 51/22/1
f 187/51/1 188/53/1 91/54/1 92/52/1
f 188/53/1 189/55/1 90/56/1 91/54/1
f 189/55/1 190/35/1 89/36/1 90/56/1
f 221/17/2 55/16/2 85/40/2 227/39/2
f 227/39/2 85/40/2 86/42/2 228/41/2
f 228/41/2 86/42/2 87/44/2 229/43/2
f 229/43/2 87/44/2 88/34/2 230/33/2
f 203/20/2 56/19/2 81/46/2 209/45/2
f 209/45/2 81/46/2 82/48/2 210/47/2
f 210/47/2 82/48/2 83/57/2 211/58/2
f 211/58/2 83/57/2 84/32/2 212/31/2
f 184/9/2 57/22/2 77/52/2 191/51/2
f 191/51/2 77/52/2 78/54/2 192/53/2
f 192/53/2 78/54/2 79/59/2 193/60/2
f 193/60/2 79/59/2 80/30/2 194/29/2
f 146/12/4 6/12/4 69/61/4 153/61/4
f 153/61/4 69/61/4 70/62/4 154/62/4
f 154/62/4 70/62/4 71/63/4 155/63/4
f 155/63/4 71/63/4 72/7/4 156/7/4
f 74/64/12 75/65/12 135/65/12 133/64/12
f 118/6/3 117/65/3 136/65/3 138/6/3
f 76/6/12 5/66/12 139/66/12 137/6/12
f 115/67/3 102/68/3 142/68/3 132/67/3
f 240/14/2 120/13/2 119/69/2 241/70/2
f 241/70/2 119/69/2 125/71/2 242/72/2
f 242/72/2 125/71/2 124/64/2 243/73/2
f 243/73/2 124/64/2 123/4/2 244/1/2
f 239/14/1 245/70/1 68/69/1 3/13/1
f 245/70/1 246/72/1 67/71/1 68/69/1
f 246/72/1 247/73/1 66/64/1 67/71/1
f 247/73/1 248/1/1 65/4/1 66/64/1
f 179/71/7 127/71/7 128/69/7 180/69/7
f 178/64/7 129/64/7 127/71/7 179/71/7
f 177/4/7 130/4/7 129/64/7 178/64/7
f 165/3/7 126/3/7 130/4/7 177/4/7
f 175/63/4 113/63/4 114/7/4 176/7/4
f 174/62/4 112/62/4 113/63/4 175/63/4
f 173/61/4 111/61/4 112/62/4 174/62/4
f 166/12/4 104/12/4 111/61/4 173/61/4
f 236/27/5 231/27/5 110/28/5 172/28/5
f 218/25/5 213/25/5 109/26/5 171/26/5
f 200/23/5 195/23/5 108/24/5 170/24/5
f 232/17/6 272/17/6 271/18/6 148/19/6 106/19/6
f 249/14/6 280/14/6 279/15/6 147/16/6 105/16/6
f 254/11/6 251/10/6 235/74/6 234/10/6
f 214/20/6 264/20/6 263/21/6 149/22/6 107/22/6
f 253/2/5 250/2/5 126/3/5 165/3/5
f 176/7/4 114/7/4 103/8/4 182/8/4
f 180/69/7 128/69/7 121/13/7 181/13/7
f 5/66/7 76/6/7 119/69/7 120/13/7
f 157/5/7 5/66/7 120/13/7 143/13/7
f 73/67/7 8/75/7 122/3/7 123/4/7
f 74/64/7 73/67/7 123/4/7 124/64/7
f 75/65/7 74/64/7 124/64/7 125/71/7
f 76/6/7 75/65/7 125/71/7 119/69/7
f 158/76/7 102/68/7 126/3/7 145/3/7
f 117/65/7 118/6/7 128/69/7 127/71/7
f 116/64/7 117/65/7 127/71/7 129/64/7
f 115/67/7 116/64/7 129/64/7 130/4/7
f 102/68/7 115/67/7 130/4/7 126/3/7
f 118/6/7 101/5/7 121/13/7 128/69/7
f 162/6/7 137/6/7 139/66/7 163/5/7
f 164/76/7 141/75/7 131/67/7 159/67/7
f 159/67/7 131/67/7 133/64/7 160/64/7
f 160/64/7 133/64/7 135/65/7 161/65/7
f 161/65/7 135/65/7 137/6/7 162/6/7
f 157/5/6 101/5/6 140/5/6 163/5/6
f 117/65/3 116/64/3 134/64/3 136/65/3
f 75/65/12 76/6/12 137/6/12 135/65/12
f 8/75/12 73/67/12 131/67/12 141/75/12
f 116/64/3 115/67/3 132/67/3 134/64/3
f 158/76/5 8/75/5 141/75/5 164/76/5
f 73/67/12 74/64/12 133/64/12 131/67/12
f 102/68/5 158/76/5 164/76/5 142/68/5
f 5/66/6 157/5/6 163/5/6 139/66/6
f 136/65/7 161/65/7 162/6/7 138/6/7
f 134/64/7 160/64/7 161/65/7 136/65/7
f 132/67/7 159/67/7 160/64/7 134/64/7
f 142/68/7 164/76/7 159/67/7 132/67/7
f 138/6/7 162/6/7 163/5/7 140/5/7
f 8/75/7 158/76/7 145/3/7 122/3/7
f 101/5/7 157/5/7 143/13/7 121/13/7
f 113/63/4 155/63/4 156/7/4 114/7/4
f 112/62/4 154/62/4 155/63/4 113/63/4
f 111/61/4 153/61/4 154/62/4 112/62/4
f 104/12/4 146/12/4 153/61/4 111/61/4
f 231/27/5 233/27/5 152/28/5 110/28/5
f 213/25/5 215/25/5 151/26/5 109/26/5
f 195/23/5 197/23/5 150/24/5 108/24/5
f 148/19/6 56/19/6 203/20/6 266/20/6 265/77/6
f 147/16/6 55/16/6 221/17/6 274/17/6 273/78/6
f 143/13/6 120/13/6 240/14/6 282/14/6 281/79/6
f 149/22/6 57/22/6 184/9/6 258/10/6 257/74/6
f 250/2/5 252/2/5 145/3/5 126/3/5
f 114/7/4 156/7/4 144/8/4 103/8/4
f 68/69/7 180/69/7 181/13/7 3/13/7
f 64/7/4 176/7/4 182/8/4 2/8/4
f 237/2/5 253/2/5 165/3/5 4/3/5
f 169/22/6 107/22/6 196/9/6 262/10/6 261/74/6
f 181/13/6 121/13/6 249/14/6 286/14/6 285/79/6
f 167/16/6 105/16/6 232/17/6 278/17/6 277/78/6
f 168/19/6 106/19/6 214/20/6 270/20/6 269/77/6
f 185/23/5 200/23/5 170/24/5 52/24/5
f 202/25/5 218/25/5 171/26/5 53/26/5
f 220/27/5 236/27/5 172/28/5 54/28/5
f 1/12/4 166/12/4 173/61/4 61/61/4
f 61/61/4 173/61/4 174/62/4 62/62/4
f 62/62/4 174/62/4 175/63/4 63/63/4
f 63/63/4 175/63/4 176/7/4 64/7/4
f 4/3/7 165/3/7 177/4/7 65/4/7
f 65/4/7 177/4/7 178/64/7 66/64/7
f 66/64/7 178/64/7 179/71/7 67/71/7
f 67/71/7 179/71/7 180/69/7 68/69/7
f 2/8/5 182/8/5 200/23/5 185/23/5
f 259/11/6 262/10/6 196/9/6 104/12/6 166/12/6
f 255/11/6 258/10/6 184/9/6 6/12/6 146/12/6
f 103/8/5 144/8/5 197/23/5 195/23/5
f 51/22/6 169/22/6 261/74/6 260/10/6 183/9/6
f 182/8/5 103/8/5 195/23/5 200/23/5
f 71/63/2 193/60/2 194/29/2 72/7/2
f 70/62/2 192/53/2 193/60/2 71/63/2
f 69/61/2 191/51/2 192/53/2 70/62/2
f 6/12/2 184/9/2 191/51/2 69/61/2
f 63/63/1 64/7/1 190/35/1 189/55/1
f 62/62/1 63/63/1 189/55/1 188/53/1
f 61/61/1 62/62/1 188/53/1 187/51/1
f 1/12/1 61/61/1 187/51/1 183/9/1
f 64/7/1 2/8/1 185/23/1 190/35/1
f 72/7/2 194/29/2 186/23/2 7/8/2
f 144/8/5 7/8/5 186/23/5 197/23/5
f 107/22/6 149/22/6 257/74/6 256/10/6 196/9/6
f 52/24/5 170/24/5 218/25/5 202/25/5
f 267/21/6 270/20/6 214/20/6 107/22/6 169/22/6
f 263/21/6 266/80/6 203/20/6 57/22/6 149/22/6
f 108/24/5 150/24/5 215/25/5 213/25/5
f 50/19/6 168/19/6 269/77/6 268/20/6 201/20/6
f 170/24/5 108/24/5 213/25/5 218/25/5
f 79/59/2 211/58/2 212/31/2 80/30/2
f 78/54/2 210/47/2 211/58/2 79/59/2
f 77/52/2 209/45/2 210/47/2 78/54/2
f 57/22/2 203/20/2 209/45/2 77/52/2
f 90/56/1 89/36/1 208/37/1 207/49/1
f 91/54/1 90/56/1 207/49/1 206/47/1
f 92/52/1 91/54/1 206/47/1 205/45/1
f 51/22/1 92/52/1 205/45/1 201/20/1
f 89/36/1 52/24/1 202/25/1 208/37/1
f 80/30/2 212/31/2 204/25/2 58/24/2
f 150/24/5 58/24/5 204/25/5 215/25/5
f 106/19/6 148/19/6 265/77/6 264/80/6 214/20/6
f 53/26/5 171/26/5 236/27/5 220/27/5
f 275/18/6 278/17/6 232/17/6 106/19/6 168/19/6
f 271/18/6 274/17/6 221/17/6 56/19/6 148/19/6
f 109/26/5 151/26/5 233/27/5 231/27/5
f 49/16/6 167/16/6 277/81/6 276/17/6 219/17/6
f 171/26/5 109/26/5 231/27/5 236/27/5
f 83/57/2 229/43/2 230/33/2 84/32/2
f 82/48/2 228/41/2 229/43/2 83/57/2
f 81/46/2 227/39/2 228/41/2 82/48/2
f 56/19/2 221/17/2 227/39/2 81/46/2
f 94/50/1 93/38/1 226/33/1 225/43/1
f 95/48/1 94/50/1 225/43/1 224/41/1
f 96/46/1 95/48/1 224/41/1 223/39/1
f 50/19/1 96/46/1 223/39/1 219/17/1
f 93/38/1 53/26/1 220/27/1 226/33/1
f 84/32/2 230/33/2 222/27/2 59/26/2
f 151/26/5 59/26/5 222/27/5 233/27/5
f 105/16/6 147/16/6 273/81/6 272/17/6 232/17/6
f 283/15/6 286/14/6 249/14/6 105/16/6 167/16/6
f 54/28/5 172/28/5 253/2/5 237/2/5
f 110/28/5 152/28/5 252/2/5 250/2/5
f 279/15/6 282/14/6 240/14/6 55/16/6 147/16/6
f 172/28/5 110/28/5 250/2/5 253/2/5
f 3/13/6 181/13/6 285/79/6 284/14/6 239/14/6
f 98/44/1 97/34/1 248/1/1 247/73/1
f 99/42/1 98/44/1 247/73/1 246/72/1
f 100/40/1 99/42/1 246/72/1 245/70/1
f 49/16/1 100/40/1 245/70/1 239/14/1
f 87/44/2 243/73/2 244/1/2 88/34/2
f 86/42/2 242/72/2 243/73/2 87/44/2
f 85/40/2 241/70/2 242/72/2 86/42/2
f 55/16/2 240/14/2 241/70/2 85/40/2
f 121/13/6 143/13/6 281/79/6 280/14/6 249/14/6
f 152/28/5 60/28/5 238/2/5 252/2/5
f 88/34/2 244/1/2 238/2/2 60/28/2
f 97/34/1 54/28/1 237/2/1 248/1/1
f 256/10/13 257/74/13 235/74/13 251/10/13
f 269/77/14 270/20/14 294/20/14 293/77/14
f 286/14/15 283/15/15 307/15/15 310/14/15
f 255/11/16 256/10/16 251/10/16 254/11/16
f 268/20/13 269/77/13 293/77/13 292/20/13
f 281/79/14 282/14/14 306/14/14 305/79/14
f 258/10/15 255/11/15 254/11/15 234/10/15
f 267/21/16 268/20/16 292/20/16 291/21/16
f 196/9/6 256/10/6 255/11/6 146/12/6 104/12/6
f 217/11/6 216/10/6 199/74/6 198/10/6
f 287/21/6 288/20/6 289/77/6 290/20/6
f 291/21/6 292/20/6 293/77/6 294/20/6
f 295/18/6 296/17/6 297/81/6 298/17/6
f 299/18/6 300/17/6 301/81/6 302/17/6
f 303/15/6 304/14/6 305/79/6 306/14/6
f 307/15/6 308/14/6 309/79/6 310/14/6
f 283/15/16 284/14/16 308/14/16 307/15/16
f 274/17/15 271/18/15 295/18/15 298/17/15
f 257/74/14 258/10/14 234/10/14 235/74/14
f 284/14/13 285/79/13 309/79/13 308/14/13
f 271/18/16 272/17/16 296/17/16 295/18/16
f 262/10/15 259/11/15 217/11/15 198/10/15
f 285/79/14 286/14/14 310/14/14 309/79/14
f 272/17/13 273/81/13 297/81/13 296/17/13
f 259/11/16 260/10/16 216/10/16 217/11/16
f 273/78/14 274/17/14 298/17/14 297/78/14
f 260/10/13 261/74/13 199/74/13 216/10/13
f 278/17/15 275/18/15 299/18/15 302/17/15
f 261/74/14 262/10/14 198/10/14 199/74/14
f 275/18/16 276/17/16 300/17/16 299/18/16
f 266/80/15 263/21/15 287/21/15 290/80/15
f 276/17/13 277/81/13 301/81/13 300/17/13
f 263/21/16 264/20/16 288/20/16 287/21/16
f 277/78/14 278/17/14 302/17/14 301/78/14
f 264/80/13 265/77/13 289/77/13 288/80/13
f 282/14/15 279/15/15 303/15/15 306/14/15
f 265/77/14 266/20/14 290/20/14 289/77/14
f 279/15/16 280/14/16 304/14/16 303/15/16
f 270/20/15 267/21/15 291/21/15 294/20/15
f 280/14/13 281/79/13 305/79/13 304/14/13
